<mxfile host="app.diagrams.net" modified="2022-10-27T05:49:21.981Z" agent="5.0 (Macintosh; Intel Mac OS X 10_15_7) AppleWebKit/537.36 (KHTML, like Gecko) Chrome/106.0.0.0 Safari/537.36" etag="sp1_cQVGK-ByKd-Viezg" version="20.4.2" type="github">
  <diagram id="n3cvxkaPWhMtdKCeZVID" name="Page-1">
    <mxGraphModel dx="946" dy="533" grid="1" gridSize="10" guides="1" tooltips="1" connect="1" arrows="1" fold="1" page="1" pageScale="1" pageWidth="850" pageHeight="1100" math="0" shadow="0">
      <root>
        <mxCell id="0" />
        <mxCell id="1" parent="0" />
        <mxCell id="XFXWlrWmR0sICNFkQZzc-1" value="&lt;font color=&quot;#009900&quot;&gt;Queue (empty)&lt;/font&gt;" style="rounded=1;whiteSpace=wrap;html=1;" parent="1" vertex="1">
          <mxGeometry x="40" y="40" width="100" height="40" as="geometry" />
        </mxCell>
        <mxCell id="XFXWlrWmR0sICNFkQZzc-2" value="Add regular task" style="rounded=0;whiteSpace=wrap;html=1;" parent="1" vertex="1">
          <mxGeometry x="40" y="90" width="100" height="30" as="geometry" />
        </mxCell>
        <mxCell id="XFXWlrWmR0sICNFkQZzc-3" value="Queue (1 task)" style="rounded=1;whiteSpace=wrap;html=1;" parent="1" vertex="1">
          <mxGeometry x="160" y="40" width="100" height="40" as="geometry" />
        </mxCell>
        <mxCell id="XFXWlrWmR0sICNFkQZzc-4" value="Add regular task" style="rounded=0;whiteSpace=wrap;html=1;" parent="1" vertex="1">
          <mxGeometry x="160" y="90" width="100" height="30" as="geometry" />
        </mxCell>
        <mxCell id="XFXWlrWmR0sICNFkQZzc-5" value="Queue (2 tasks)" style="rounded=1;whiteSpace=wrap;html=1;" parent="1" vertex="1">
          <mxGeometry x="280" y="40" width="100" height="40" as="geometry" />
        </mxCell>
        <mxCell id="XFXWlrWmR0sICNFkQZzc-6" value="Add blocking task" style="rounded=0;whiteSpace=wrap;html=1;" parent="1" vertex="1">
          <mxGeometry x="280" y="90" width="100" height="30" as="geometry" />
        </mxCell>
        <mxCell id="XFXWlrWmR0sICNFkQZzc-7" value="" style="endArrow=classic;html=1;rounded=0;exitX=1;exitY=0.5;exitDx=0;exitDy=0;entryX=0;entryY=0.5;entryDx=0;entryDy=0;" parent="1" source="XFXWlrWmR0sICNFkQZzc-1" target="XFXWlrWmR0sICNFkQZzc-3" edge="1">
          <mxGeometry width="50" height="50" relative="1" as="geometry">
            <mxPoint x="260" y="150" as="sourcePoint" />
            <mxPoint x="310" y="100" as="targetPoint" />
          </mxGeometry>
        </mxCell>
        <mxCell id="XFXWlrWmR0sICNFkQZzc-8" value="" style="endArrow=classic;html=1;rounded=0;entryX=0;entryY=0.5;entryDx=0;entryDy=0;exitX=1;exitY=0.5;exitDx=0;exitDy=0;" parent="1" source="XFXWlrWmR0sICNFkQZzc-2" target="XFXWlrWmR0sICNFkQZzc-4" edge="1">
          <mxGeometry width="50" height="50" relative="1" as="geometry">
            <mxPoint x="140" y="120" as="sourcePoint" />
            <mxPoint x="200" y="120" as="targetPoint" />
          </mxGeometry>
        </mxCell>
        <mxCell id="XFXWlrWmR0sICNFkQZzc-9" value="" style="endArrow=classic;html=1;rounded=0;exitX=1;exitY=0.5;exitDx=0;exitDy=0;entryX=0;entryY=0.5;entryDx=0;entryDy=0;" parent="1" source="XFXWlrWmR0sICNFkQZzc-3" target="XFXWlrWmR0sICNFkQZzc-5" edge="1">
          <mxGeometry width="50" height="50" relative="1" as="geometry">
            <mxPoint x="180" y="90" as="sourcePoint" />
            <mxPoint x="220" y="90" as="targetPoint" />
          </mxGeometry>
        </mxCell>
        <mxCell id="XFXWlrWmR0sICNFkQZzc-10" value="" style="endArrow=classic;html=1;rounded=0;exitX=1;exitY=0.5;exitDx=0;exitDy=0;entryX=0;entryY=0.5;entryDx=0;entryDy=0;" parent="1" source="XFXWlrWmR0sICNFkQZzc-4" target="XFXWlrWmR0sICNFkQZzc-6" edge="1">
          <mxGeometry width="50" height="50" relative="1" as="geometry">
            <mxPoint x="190" y="90" as="sourcePoint" />
            <mxPoint x="230" y="90" as="targetPoint" />
          </mxGeometry>
        </mxCell>
        <mxCell id="XFXWlrWmR0sICNFkQZzc-11" value="Shutdown queue and wait for all tasks to finish" style="rounded=0;whiteSpace=wrap;html=1;" parent="1" vertex="1">
          <mxGeometry x="280" y="160" width="100" height="50" as="geometry" />
        </mxCell>
        <mxCell id="XFXWlrWmR0sICNFkQZzc-13" value="Create a new queue" style="rounded=0;whiteSpace=wrap;html=1;" parent="1" vertex="1">
          <mxGeometry x="280" y="210" width="100" height="40" as="geometry" />
        </mxCell>
        <mxCell id="XFXWlrWmR0sICNFkQZzc-15" value="Schedule the blocking task" style="rounded=0;whiteSpace=wrap;html=1;" parent="1" vertex="1">
          <mxGeometry x="280" y="250" width="100" height="40" as="geometry" />
        </mxCell>
        <mxCell id="XFXWlrWmR0sICNFkQZzc-16" value="&lt;font color=&quot;#009900&quot;&gt;Queue (1 task)&lt;/font&gt;" style="rounded=1;whiteSpace=wrap;html=1;" parent="1" vertex="1">
          <mxGeometry x="400" y="40" width="100" height="40" as="geometry" />
        </mxCell>
        <mxCell id="XFXWlrWmR0sICNFkQZzc-17" value="Acquire lock for thread" style="rounded=0;whiteSpace=wrap;html=1;" parent="1" vertex="1">
          <mxGeometry x="280" y="120" width="100" height="40" as="geometry" />
        </mxCell>
        <mxCell id="XFXWlrWmR0sICNFkQZzc-18" value="Release lock, allowing later dispatched tasks to be added to the queue" style="rounded=0;whiteSpace=wrap;html=1;" parent="1" vertex="1">
          <mxGeometry x="280" y="290" width="100" height="80" as="geometry" />
        </mxCell>
        <mxCell id="XFXWlrWmR0sICNFkQZzc-19" value="Add regular task" style="rounded=0;whiteSpace=wrap;html=1;" parent="1" vertex="1">
          <mxGeometry x="400" y="90" width="100" height="30" as="geometry" />
        </mxCell>
        <mxCell id="XFXWlrWmR0sICNFkQZzc-20" value="Queue contains a blocking task" style="rounded=0;whiteSpace=wrap;html=1;" parent="1" vertex="1">
          <mxGeometry x="400" y="160" width="100" height="40" as="geometry" />
        </mxCell>
        <mxCell id="XFXWlrWmR0sICNFkQZzc-21" value="Acquire lock for thread" style="rounded=0;whiteSpace=wrap;html=1;" parent="1" vertex="1">
          <mxGeometry x="400" y="120" width="100" height="40" as="geometry" />
        </mxCell>
        <mxCell id="XFXWlrWmR0sICNFkQZzc-22" value="Shutdown queue and wait for all tasks to finish" style="rounded=0;whiteSpace=wrap;html=1;" parent="1" vertex="1">
          <mxGeometry x="400" y="200" width="100" height="50" as="geometry" />
        </mxCell>
        <mxCell id="XFXWlrWmR0sICNFkQZzc-23" value="Create a new queue" style="rounded=0;whiteSpace=wrap;html=1;" parent="1" vertex="1">
          <mxGeometry x="400" y="250" width="100" height="40" as="geometry" />
        </mxCell>
        <mxCell id="XFXWlrWmR0sICNFkQZzc-24" value="Schedule the task" style="rounded=0;whiteSpace=wrap;html=1;" parent="1" vertex="1">
          <mxGeometry x="400" y="290" width="100" height="40" as="geometry" />
        </mxCell>
        <mxCell id="XFXWlrWmR0sICNFkQZzc-25" value="Release lock, allowing later dispatched tasks to be added to the queue" style="rounded=0;whiteSpace=wrap;html=1;" parent="1" vertex="1">
          <mxGeometry x="400" y="330" width="100" height="80" as="geometry" />
        </mxCell>
        <mxCell id="XFXWlrWmR0sICNFkQZzc-26" value="&lt;font color=&quot;#009900&quot;&gt;Queue (1 task)&lt;/font&gt;" style="rounded=1;whiteSpace=wrap;html=1;" parent="1" vertex="1">
          <mxGeometry x="520" y="40" width="100" height="40" as="geometry" />
        </mxCell>
        <mxCell id="XFXWlrWmR0sICNFkQZzc-27" value="Add regular task" style="rounded=0;whiteSpace=wrap;html=1;" parent="1" vertex="1">
          <mxGeometry x="520" y="90" width="100" height="30" as="geometry" />
        </mxCell>
        <mxCell id="XFXWlrWmR0sICNFkQZzc-28" value="Queue (2 tasks)" style="rounded=1;whiteSpace=wrap;html=1;" parent="1" vertex="1">
          <mxGeometry x="640" y="40" width="100" height="40" as="geometry" />
        </mxCell>
        <mxCell id="XFXWlrWmR0sICNFkQZzc-29" value="Add regular task" style="rounded=0;whiteSpace=wrap;html=1;" parent="1" vertex="1">
          <mxGeometry x="640" y="90" width="100" height="30" as="geometry" />
        </mxCell>
        <mxCell id="XFXWlrWmR0sICNFkQZzc-30" value="" style="endArrow=classic;html=1;rounded=0;exitX=1;exitY=0.5;exitDx=0;exitDy=0;entryX=0;entryY=0.5;entryDx=0;entryDy=0;" parent="1" source="XFXWlrWmR0sICNFkQZzc-5" target="XFXWlrWmR0sICNFkQZzc-16" edge="1">
          <mxGeometry width="50" height="50" relative="1" as="geometry">
            <mxPoint x="270" y="70" as="sourcePoint" />
            <mxPoint x="290" y="70" as="targetPoint" />
          </mxGeometry>
        </mxCell>
        <mxCell id="XFXWlrWmR0sICNFkQZzc-31" value="" style="endArrow=classic;html=1;rounded=0;exitX=1;exitY=0.5;exitDx=0;exitDy=0;entryX=0;entryY=0.5;entryDx=0;entryDy=0;" parent="1" source="XFXWlrWmR0sICNFkQZzc-6" target="XFXWlrWmR0sICNFkQZzc-19" edge="1">
          <mxGeometry width="50" height="50" relative="1" as="geometry">
            <mxPoint x="280" y="80" as="sourcePoint" />
            <mxPoint x="300" y="80" as="targetPoint" />
          </mxGeometry>
        </mxCell>
        <mxCell id="XFXWlrWmR0sICNFkQZzc-32" value="" style="endArrow=classic;html=1;rounded=0;exitX=1;exitY=0.5;exitDx=0;exitDy=0;entryX=0;entryY=0.5;entryDx=0;entryDy=0;" parent="1" source="XFXWlrWmR0sICNFkQZzc-16" target="XFXWlrWmR0sICNFkQZzc-26" edge="1">
          <mxGeometry width="50" height="50" relative="1" as="geometry">
            <mxPoint x="290" y="90" as="sourcePoint" />
            <mxPoint x="310" y="90" as="targetPoint" />
          </mxGeometry>
        </mxCell>
        <mxCell id="XFXWlrWmR0sICNFkQZzc-33" value="" style="endArrow=classic;html=1;rounded=0;exitX=1;exitY=0.5;exitDx=0;exitDy=0;entryX=0;entryY=0.5;entryDx=0;entryDy=0;" parent="1" source="XFXWlrWmR0sICNFkQZzc-19" target="XFXWlrWmR0sICNFkQZzc-27" edge="1">
          <mxGeometry width="50" height="50" relative="1" as="geometry">
            <mxPoint x="300" y="100" as="sourcePoint" />
            <mxPoint x="320" y="100" as="targetPoint" />
          </mxGeometry>
        </mxCell>
        <mxCell id="XFXWlrWmR0sICNFkQZzc-34" value="" style="endArrow=classic;html=1;rounded=0;exitX=1;exitY=0.5;exitDx=0;exitDy=0;entryX=0;entryY=0.5;entryDx=0;entryDy=0;" parent="1" source="XFXWlrWmR0sICNFkQZzc-26" target="XFXWlrWmR0sICNFkQZzc-28" edge="1">
          <mxGeometry width="50" height="50" relative="1" as="geometry">
            <mxPoint x="310" y="110" as="sourcePoint" />
            <mxPoint x="330" y="110" as="targetPoint" />
          </mxGeometry>
        </mxCell>
        <mxCell id="XFXWlrWmR0sICNFkQZzc-35" value="" style="endArrow=classic;html=1;rounded=0;exitX=1;exitY=0.5;exitDx=0;exitDy=0;entryX=0;entryY=0.5;entryDx=0;entryDy=0;" parent="1" source="XFXWlrWmR0sICNFkQZzc-27" target="XFXWlrWmR0sICNFkQZzc-29" edge="1">
          <mxGeometry width="50" height="50" relative="1" as="geometry">
            <mxPoint x="630" y="70" as="sourcePoint" />
            <mxPoint x="650" y="70" as="targetPoint" />
          </mxGeometry>
        </mxCell>
        <mxCell id="XFXWlrWmR0sICNFkQZzc-36" value="Acquire lock for thread" style="rounded=0;whiteSpace=wrap;html=1;" parent="1" vertex="1">
          <mxGeometry x="40" y="120" width="100" height="40" as="geometry" />
        </mxCell>
        <mxCell id="XFXWlrWmR0sICNFkQZzc-37" value="Queue does not contains a blocking task" style="rounded=0;whiteSpace=wrap;html=1;" parent="1" vertex="1">
          <mxGeometry x="40" y="160" width="100" height="50" as="geometry" />
        </mxCell>
        <mxCell id="XFXWlrWmR0sICNFkQZzc-38" value="Schedule the task" style="rounded=0;whiteSpace=wrap;html=1;" parent="1" vertex="1">
          <mxGeometry x="40" y="210" width="100" height="40" as="geometry" />
        </mxCell>
        <mxCell id="XFXWlrWmR0sICNFkQZzc-39" value="Release lock, allowing later dispatched tasks to be added to the queue" style="rounded=0;whiteSpace=wrap;html=1;" parent="1" vertex="1">
          <mxGeometry x="40" y="250" width="100" height="80" as="geometry" />
        </mxCell>
        <mxCell id="XFXWlrWmR0sICNFkQZzc-40" value="Acquire lock for thread" style="rounded=0;whiteSpace=wrap;html=1;" parent="1" vertex="1">
          <mxGeometry x="160" y="120" width="100" height="40" as="geometry" />
        </mxCell>
        <mxCell id="XFXWlrWmR0sICNFkQZzc-41" value="Queue does not contains a blocking task" style="rounded=0;whiteSpace=wrap;html=1;" parent="1" vertex="1">
          <mxGeometry x="160" y="160" width="100" height="50" as="geometry" />
        </mxCell>
        <mxCell id="XFXWlrWmR0sICNFkQZzc-42" value="Schedule the task" style="rounded=0;whiteSpace=wrap;html=1;" parent="1" vertex="1">
          <mxGeometry x="160" y="210" width="100" height="40" as="geometry" />
        </mxCell>
        <mxCell id="XFXWlrWmR0sICNFkQZzc-43" value="Release lock, allowing later dispatched tasks to be added to the queue" style="rounded=0;whiteSpace=wrap;html=1;" parent="1" vertex="1">
          <mxGeometry x="160" y="250" width="100" height="80" as="geometry" />
        </mxCell>
        <mxCell id="XFXWlrWmR0sICNFkQZzc-44" value="Acquire lock for thread" style="rounded=0;whiteSpace=wrap;html=1;" parent="1" vertex="1">
          <mxGeometry x="520" y="120" width="100" height="40" as="geometry" />
        </mxCell>
        <mxCell id="XFXWlrWmR0sICNFkQZzc-45" value="Queue does not contains a blocking task" style="rounded=0;whiteSpace=wrap;html=1;" parent="1" vertex="1">
          <mxGeometry x="520" y="160" width="100" height="50" as="geometry" />
        </mxCell>
        <mxCell id="XFXWlrWmR0sICNFkQZzc-46" value="Schedule the task" style="rounded=0;whiteSpace=wrap;html=1;" parent="1" vertex="1">
          <mxGeometry x="520" y="210" width="100" height="40" as="geometry" />
        </mxCell>
        <mxCell id="XFXWlrWmR0sICNFkQZzc-47" value="Release lock, allowing later dispatched tasks to be added to the queue" style="rounded=0;whiteSpace=wrap;html=1;" parent="1" vertex="1">
          <mxGeometry x="520" y="250" width="100" height="80" as="geometry" />
        </mxCell>
        <mxCell id="XFXWlrWmR0sICNFkQZzc-48" value="Acquire lock for thread" style="rounded=0;whiteSpace=wrap;html=1;" parent="1" vertex="1">
          <mxGeometry x="640" y="120" width="100" height="40" as="geometry" />
        </mxCell>
        <mxCell id="XFXWlrWmR0sICNFkQZzc-49" value="Queue does not contains a blocking task" style="rounded=0;whiteSpace=wrap;html=1;" parent="1" vertex="1">
          <mxGeometry x="640" y="160" width="100" height="50" as="geometry" />
        </mxCell>
        <mxCell id="XFXWlrWmR0sICNFkQZzc-50" value="Schedule the task" style="rounded=0;whiteSpace=wrap;html=1;" parent="1" vertex="1">
          <mxGeometry x="640" y="210" width="100" height="40" as="geometry" />
        </mxCell>
        <mxCell id="XFXWlrWmR0sICNFkQZzc-51" value="Release lock, allowing later dispatched tasks to be added to the queue" style="rounded=0;whiteSpace=wrap;html=1;" parent="1" vertex="1">
          <mxGeometry x="640" y="250" width="100" height="80" as="geometry" />
        </mxCell>
        <mxCell id="XFXWlrWmR0sICNFkQZzc-52" value="&lt;font color=&quot;#000000&quot;&gt;&lt;font style=&quot;font-size: 17px;&quot;&gt;Regular tasks&lt;/font&gt;&lt;br&gt;&lt;/font&gt;" style="rounded=0;whiteSpace=wrap;html=1;fontColor=#009900;" parent="1" vertex="1">
          <mxGeometry x="280" y="660" width="120" height="60" as="geometry" />
        </mxCell>
        <mxCell id="XFXWlrWmR0sICNFkQZzc-53" value="Queue can hold 1-N tasks" style="rounded=0;whiteSpace=wrap;html=1;fontColor=#000000;" parent="1" vertex="1">
          <mxGeometry x="280" y="720" width="120" height="60" as="geometry" />
        </mxCell>
        <mxCell id="XFXWlrWmR0sICNFkQZzc-54" value="FIFO ordering" style="rounded=0;whiteSpace=wrap;html=1;fontColor=#000000;" parent="1" vertex="1">
          <mxGeometry x="280" y="780" width="120" height="60" as="geometry" />
        </mxCell>
        <mxCell id="XFXWlrWmR0sICNFkQZzc-55" value="&lt;span style=&quot;font-size: 12px;&quot;&gt;Execution in multiple threads if available&lt;/span&gt;" style="rounded=0;whiteSpace=wrap;html=1;fontSize=17;fontColor=#000000;" parent="1" vertex="1">
          <mxGeometry x="280" y="840" width="120" height="60" as="geometry" />
        </mxCell>
        <mxCell id="XFXWlrWmR0sICNFkQZzc-56" value="&lt;font color=&quot;#000000&quot;&gt;&lt;font style=&quot;font-size: 17px;&quot;&gt;Blocking Tasks&lt;/font&gt;&lt;br&gt;&lt;/font&gt;" style="rounded=0;whiteSpace=wrap;html=1;fontColor=#009900;" parent="1" vertex="1">
          <mxGeometry x="600" y="660" width="120" height="60" as="geometry" />
        </mxCell>
        <mxCell id="XFXWlrWmR0sICNFkQZzc-57" value="Queue can hold only 1 task" style="rounded=0;whiteSpace=wrap;html=1;fontColor=#000000;" parent="1" vertex="1">
          <mxGeometry x="600" y="720" width="120" height="60" as="geometry" />
        </mxCell>
        <mxCell id="XFXWlrWmR0sICNFkQZzc-60" value="&lt;font color=&quot;#000000&quot;&gt;&lt;font style=&quot;font-size: 17px;&quot;&gt;Waiting for task completion&lt;/font&gt;&lt;br&gt;&lt;/font&gt;" style="rounded=0;whiteSpace=wrap;html=1;fontColor=#009900;" parent="1" vertex="1">
          <mxGeometry x="440" y="660" width="120" height="60" as="geometry" />
        </mxCell>
        <mxCell id="XFXWlrWmR0sICNFkQZzc-61" value="Queue will shutdown and wait a fixed amount of time before accepting new tasks" style="rounded=0;whiteSpace=wrap;html=1;fontColor=#000000;" parent="1" vertex="1">
          <mxGeometry x="440" y="860" width="120" height="60" as="geometry" />
        </mxCell>
        <mxCell id="XFXWlrWmR0sICNFkQZzc-62" value="After elapsed time passed a new instance of the queue will be created" style="rounded=0;whiteSpace=wrap;html=1;fontColor=#000000;" parent="1" vertex="1">
          <mxGeometry x="440" y="920" width="120" height="60" as="geometry" />
        </mxCell>
        <mxCell id="XFXWlrWmR0sICNFkQZzc-63" value="&lt;span style=&quot;font-size: 12px;&quot;&gt;Thread will be locked until this process completes&lt;/span&gt;" style="rounded=0;whiteSpace=wrap;html=1;fontSize=17;fontColor=#000000;" parent="1" vertex="1">
          <mxGeometry x="440" y="980" width="120" height="60" as="geometry" />
        </mxCell>
        <mxCell id="XFXWlrWmR0sICNFkQZzc-64" value="Queue will enter this state in one of 2 scenarios, either a blocking task is waiting to be dispatched, or a regular task is waiting for a blocking task to complete" style="rounded=0;whiteSpace=wrap;html=1;fontSize=12;fontColor=#000000;" parent="1" vertex="1">
          <mxGeometry x="440" y="720" width="120" height="140" as="geometry" />
        </mxCell>
        <mxCell id="XFXWlrWmR0sICNFkQZzc-65" value="&lt;font style=&quot;font-size: 30px;&quot;&gt;1&lt;/font&gt;" style="rounded=0;whiteSpace=wrap;html=1;fontSize=12;fontColor=#000000;" parent="1" vertex="1">
          <mxGeometry x="280" y="600" width="120" height="60" as="geometry" />
        </mxCell>
        <mxCell id="XFXWlrWmR0sICNFkQZzc-66" value="&lt;font style=&quot;font-size: 30px;&quot;&gt;2&lt;/font&gt;" style="rounded=0;whiteSpace=wrap;html=1;fontSize=12;fontColor=#000000;" parent="1" vertex="1">
          <mxGeometry x="440" y="600" width="120" height="60" as="geometry" />
        </mxCell>
        <mxCell id="XFXWlrWmR0sICNFkQZzc-67" value="&lt;font style=&quot;font-size: 30px;&quot;&gt;3&lt;/font&gt;" style="rounded=0;whiteSpace=wrap;html=1;fontSize=12;fontColor=#000000;" parent="1" vertex="1">
          <mxGeometry x="600" y="600" width="120" height="60" as="geometry" />
        </mxCell>
        <mxCell id="7_W78ATWsb5j5QjcWu-F-1" value="Dispatch" style="swimlane;fontStyle=0;childLayout=stackLayout;horizontal=1;startSize=26;fillColor=none;horizontalStack=0;resizeParent=1;resizeParentMax=0;resizeLast=0;collapsible=1;marginBottom=0;" vertex="1" parent="1">
          <mxGeometry x="40" y="600" width="140" height="104" as="geometry" />
        </mxCell>
        <mxCell id="7_W78ATWsb5j5QjcWu-F-2" value="+ queue: List" style="text;strokeColor=none;fillColor=none;align=left;verticalAlign=top;spacingLeft=4;spacingRight=4;overflow=hidden;rotatable=0;points=[[0,0.5],[1,0.5]];portConstraint=eastwest;" vertex="1" parent="7_W78ATWsb5j5QjcWu-F-1">
          <mxGeometry y="26" width="140" height="26" as="geometry" />
        </mxCell>
        <mxCell id="7_W78ATWsb5j5QjcWu-F-3" value="+ field: type" style="text;strokeColor=none;fillColor=none;align=left;verticalAlign=top;spacingLeft=4;spacingRight=4;overflow=hidden;rotatable=0;points=[[0,0.5],[1,0.5]];portConstraint=eastwest;" vertex="1" parent="7_W78ATWsb5j5QjcWu-F-1">
          <mxGeometry y="52" width="140" height="26" as="geometry" />
        </mxCell>
        <mxCell id="7_W78ATWsb5j5QjcWu-F-4" value="+ field: type" style="text;strokeColor=none;fillColor=none;align=left;verticalAlign=top;spacingLeft=4;spacingRight=4;overflow=hidden;rotatable=0;points=[[0,0.5],[1,0.5]];portConstraint=eastwest;" vertex="1" parent="7_W78ATWsb5j5QjcWu-F-1">
          <mxGeometry y="78" width="140" height="26" as="geometry" />
        </mxCell>
      </root>
    </mxGraphModel>
  </diagram>
</mxfile>
